<svg xmlns="http://www.w3.org/2000/svg" viewBox="0 0 539 174" fill="none">
  <path fill-rule="evenodd" clip-rule="evenodd" d="M528.836 28.1913C522.974 28.1913 519.458 32.3627 519.458 37.577V91.6752C519.458 99.1056 514.964 105.102 506.042 105.102C497.185 105.102 492.626 99.1056 492.626 91.6752V37.577C492.626 32.4279 489.109 28.1913 483.248 28.1913C477.387 28.1913 473.87 32.3627 473.87 37.577V91.7404H473.935C474.587 108.556 485.462 121.918 506.042 121.918C526.621 121.918 537.432 108.556 538.149 91.7404H538.214V37.577C538.214 32.4279 534.697 28.1913 528.836 28.1913ZM444.629 76.6841C437.986 69.9707 422.942 63.5181 419.035 58.8252C416.625 56.1529 416.3 52.0466 418.449 48.9832C419.751 47.1582 421.705 46.0502 423.724 45.6591C427.371 45.0073 431.083 45.5288 434.014 46.702C437.856 48.2011 440.656 50.4172 443.652 50.6127C446.387 50.8082 449.188 49.635 450.946 47.1582C453.16 43.9645 452.77 39.6627 450.23 36.9252C443.001 28.2565 428.152 27.4091 420.858 28.5824C413.695 29.7556 406.791 33.2752 402.493 39.402C395.395 49.5047 396.762 63.0618 404.773 71.7957C410.829 78.7047 420.012 82.2243 427.045 86.7216C428.543 87.6993 430.432 89.0681 431.409 90.1109C434.404 93.1743 434.86 97.9975 432.386 101.582C431.083 103.407 429.26 104.581 427.306 105.102C425.482 105.623 423.203 105.754 421.835 105.689C415.779 105.558 409.396 101.387 407.573 100.605C404.186 99.1056 400.084 100.148 397.869 103.342C395.981 106.014 396.046 109.339 397.544 112.011C398.455 113.64 400.149 115.596 402.363 117.03C413.304 124.33 426.134 123.091 433.362 121.201C439.159 119.637 444.629 116.508 448.341 110.968C455.831 100.148 454.072 85.4832 444.629 76.6841ZM375.531 29.4949H327.013C322.324 29.4949 318.482 32.2324 318.482 38.0332C318.482 43.8341 322.324 46.5716 327.013 46.5716H341.992V112.532C341.992 117.681 344.988 121.918 351.37 121.918C357.687 121.918 360.748 117.747 360.748 112.532V46.5716H375.531C380.22 46.5716 384.063 43.8341 384.063 38.0332C384.063 32.2975 380.286 29.4949 375.531 29.4949ZM290.999 28.1913C285.138 28.1913 281.621 32.3627 281.621 37.577V112.532C281.621 117.681 284.617 121.918 290.999 121.918C297.316 121.918 300.377 117.747 300.377 112.532V37.577C300.377 32.4279 296.86 28.1913 290.999 28.1913ZM258.502 108.231L238.053 68.9931C253.227 50.6779 255.441 39.8582 255.701 38.2288C255.767 37.7725 255.832 37.2511 255.832 36.7297C255.832 32.0368 252.054 28.2565 247.365 28.2565C244.109 28.2565 241.309 30.1466 239.616 32.7538C237.987 35.3609 234.992 42.5306 226.07 54.9797C220.664 62.4752 214.738 68.602 212.589 70.7529V37.6422C212.589 32.4931 209.072 28.2565 203.211 28.2565C197.349 28.2565 193.833 32.4279 193.833 37.6422V112.598C193.833 117.747 196.828 121.983 203.211 121.983C209.528 121.983 212.589 117.812 212.589 112.598V94.4779C214.608 92.5225 219.101 88.2207 224.116 83.0065L241.765 116.964C244.174 121.592 249.515 123.026 254.399 121.266C259.348 119.311 260.911 112.793 258.502 108.231Z" fill="#EDF0F1" />
  <path fill-rule="evenodd" clip-rule="evenodd" d="M112.865 35.4879C107.837 33.6378 102.439 32.4537 96.7448 32.2316C87.3536 31.7876 78.4062 33.8598 70.5679 37.8562C70.1242 38.0782 69.6066 38.3002 69.089 38.5962V65.5347C69.089 65.9048 69.089 67.3109 68.8671 68.495C68.3495 71.2333 66.7227 73.6755 64.4304 75.2296C62.5078 76.5618 60.2894 77.1538 57.9231 77.0798C57.4794 77.0798 56.9618 77.0058 56.5181 76.9318C55.335 76.7098 54.0779 76.2657 53.7082 76.1177C52.6729 75.7477 37.5879 69.9011 30.3412 67.0889C29.4539 66.7188 28.7144 66.4228 28.1229 66.2008C19.4712 73.5275 10.3758 82.2603 1.87201 92.5473C1.79806 92.6213 1.42833 93.0653 1.35438 93.1393C0.245193 94.6935 0.171247 96.9137 1.35438 98.6158C2.24174 99.8739 3.64671 100.614 5.05169 100.688C6.01298 100.762 7.04823 100.466 7.93558 99.8739C8.00953 99.7999 8.08347 99.7259 8.23137 99.6519C17.2528 93.1393 27.1616 87.8848 37.6619 83.6664C38.4014 83.2964 39.2887 83.0744 40.1021 83.1484C41.2853 83.2224 42.3944 83.6664 43.2818 84.5545C44.9826 86.2567 45.0565 88.9949 43.6515 90.8451C43.06 91.7332 42.5423 92.6213 42.0247 93.5093C36.4048 102.686 31.8941 112.677 28.4926 123.112C28.4186 123.408 28.3447 123.63 28.2707 123.926V124C27.975 125.258 28.1968 126.59 29.0102 127.701C29.8976 128.959 31.3025 129.699 32.7815 129.773C33.8167 129.847 34.778 129.551 35.6654 128.959C36.0351 128.663 36.4048 128.367 36.7006 127.997C36.7745 127.849 36.9224 127.701 36.9964 127.553C40.6937 122.298 44.7607 117.34 49.1235 112.751C68.5713 91.8812 94.3785 77.1538 123.291 71.3813C123.513 71.3073 123.735 71.3073 123.957 71.3073C125.584 71.3813 126.841 72.7874 126.767 74.4156C126.693 75.8217 125.732 76.8578 124.401 77.1538C97.5582 82.8524 49.1975 114.749 66.1311 161.078C66.4269 161.818 66.6487 162.262 67.0185 162.928C67.9058 164.186 69.3108 164.926 70.7158 165C71.5292 165 73.8215 164.778 75.2265 162.262C77.9625 157.081 83.1387 151.309 98.0758 145.092C139.707 127.849 146.584 103.204 147.324 87.5888V86.7007C147.989 63.4625 133.57 43.1847 112.865 35.4879ZM71.0855 157.599C67.2403 146.128 67.61 135.027 72.1208 124.444C80.7724 138.432 95.8574 139.616 95.8574 139.616C80.4027 146.054 74.3391 152.419 71.0855 157.599Z" fill="#FF8D78" />
  <path fill-rule="evenodd" clip-rule="evenodd" d="M0.762072 37.0357C0.836018 37.1838 0.98391 37.3318 1.05786 37.4058C4.977 42.7343 9.41376 47.3967 14.2203 51.5411C14.2942 51.6151 14.3681 51.6151 14.3681 51.6891C17.4739 54.3534 23.3896 58.2017 27.6784 59.7559C27.6784 59.7559 54.373 70.0428 55.7779 70.6349C56.2956 70.8569 57.035 71.0789 57.4047 71.1529C58.5879 71.3749 59.845 71.1529 60.9542 70.4128C62.0633 69.6728 62.7289 68.5627 62.9507 67.3786C63.0246 66.9345 63.0986 66.1945 63.0986 65.6764V35.4816C63.1725 30.8932 61.6936 23.9365 60.3626 20.0882C60.3626 20.0142 60.2886 19.9402 60.2886 19.8661C58.2182 13.8716 55.4082 8.02505 51.8588 2.47453L51.637 2.03049L51.563 1.95648C50.0841 -0.115712 47.1262 -0.63376 44.9818 0.846378C44.6121 1.0684 44.3902 1.36443 44.0945 1.66045C43.8726 1.95648 43.7247 2.1785 43.5029 2.47453C38.7703 9.35717 36.8477 17.7199 38.1048 25.9347C35.6646 27.1928 33.0765 28.895 32.7807 29.117C32.4849 29.339 29.8968 31.1152 27.9003 32.9654C20.7275 28.895 12.1498 27.6369 4.08964 29.561C3.79386 29.6351 3.42413 29.7091 3.12835 29.7831C2.75862 29.9311 2.38888 30.0791 2.0931 30.3011C-0.0513348 31.7813 -0.642903 34.6675 0.762072 36.8877V37.0357ZM47.7178 7.35898C50.232 11.5774 52.3764 15.9438 54.0772 20.5322C50.6757 21.1243 47.3481 22.0123 44.0945 23.1965C43.6508 17.6459 44.9079 12.1694 47.7178 7.35898ZM23.2417 37.5538C20.8754 40.144 18.8789 42.9563 17.1041 45.9166C13.4808 42.7343 10.1532 39.1079 7.12143 35.2596C12.6674 34.2975 18.2133 35.1116 23.2417 37.5538Z" fill="#FF8D78" />
  <path d="M217.12 154.087C217.12 157.622 216.139 160.327 214.176 162.202C212.213 164.067 209.386 165 205.695 165H199.703V143.584H206.324C209.733 143.584 212.384 144.502 214.279 146.338C216.173 148.174 217.12 150.757 217.12 154.087ZM213.429 154.204C213.429 149.077 211.031 146.514 206.237 146.514H203.204V162.056H205.695C210.851 162.056 213.429 159.438 213.429 154.204ZM241.321 165L239.182 159.053H230.994L228.899 165H225.207L233.22 143.496H237.029L245.041 165H241.321ZM238.259 156.035L236.252 150.205C236.106 149.814 235.901 149.199 235.637 148.359C235.383 147.52 235.207 146.904 235.11 146.514C234.846 147.715 234.46 149.028 233.953 150.454L232.019 156.035H238.259ZM261.566 165H258.065V146.587H251.766V143.584H267.865V146.587H261.566V165ZM290.747 165L288.608 159.053H280.42L278.325 165H274.634L282.646 143.496H286.455L294.468 165H290.747ZM287.685 156.035L285.679 150.205C285.532 149.814 285.327 149.199 285.063 148.359C284.809 147.52 284.634 146.904 284.536 146.514C284.272 147.715 283.887 149.028 283.379 150.454L281.445 156.035H287.685ZM303.595 143.584H309.952C312.901 143.584 315.03 144.014 316.339 144.873C317.657 145.732 318.316 147.09 318.316 148.945C318.316 150.195 317.994 151.235 317.35 152.065C316.705 152.896 315.777 153.418 314.566 153.633V153.779C316.07 154.062 317.174 154.624 317.877 155.464C318.59 156.294 318.946 157.422 318.946 158.848C318.946 160.771 318.272 162.28 316.925 163.374C315.587 164.458 313.722 165 311.329 165H303.595V143.584ZM307.096 152.432H310.465C311.93 152.432 312.999 152.202 313.673 151.743C314.347 151.274 314.684 150.483 314.684 149.37C314.684 148.364 314.317 147.637 313.585 147.188C312.862 146.738 311.71 146.514 310.128 146.514H307.096V152.432ZM307.096 155.273V162.056H310.816C312.281 162.056 313.385 161.777 314.127 161.221C314.879 160.654 315.255 159.766 315.255 158.555C315.255 157.441 314.874 156.616 314.112 156.079C313.351 155.542 312.193 155.273 310.641 155.273H307.096ZM342.986 165L340.847 159.053H332.658L330.564 165H326.872L334.885 143.496H338.694L346.706 165H342.986ZM339.924 156.035L337.917 150.205C337.771 149.814 337.566 149.199 337.302 148.359C337.048 147.52 336.872 146.904 336.775 146.514C336.511 147.715 336.125 149.028 335.617 150.454L333.684 156.035H339.924ZM368.182 159.185C368.182 161.089 367.494 162.583 366.117 163.667C364.74 164.751 362.84 165.293 360.418 165.293C357.996 165.293 356.014 164.917 354.471 164.165V160.854C355.448 161.313 356.483 161.675 357.577 161.938C358.68 162.202 359.705 162.334 360.653 162.334C362.039 162.334 363.06 162.07 363.714 161.543C364.378 161.016 364.71 160.308 364.71 159.419C364.71 158.618 364.408 157.939 363.802 157.383C363.197 156.826 361.947 156.167 360.052 155.405C358.099 154.614 356.722 153.711 355.921 152.695C355.121 151.68 354.72 150.459 354.72 149.033C354.72 147.246 355.355 145.84 356.624 144.814C357.894 143.789 359.598 143.276 361.737 143.276C363.788 143.276 365.829 143.726 367.86 144.624L366.746 147.48C364.842 146.68 363.143 146.279 361.649 146.279C360.516 146.279 359.657 146.528 359.071 147.026C358.485 147.515 358.192 148.164 358.192 148.975C358.192 149.531 358.309 150.01 358.543 150.41C358.778 150.801 359.163 151.172 359.701 151.523C360.238 151.875 361.204 152.339 362.601 152.915C364.173 153.569 365.326 154.18 366.058 154.746C366.79 155.312 367.328 155.952 367.669 156.665C368.011 157.378 368.182 158.218 368.182 159.185ZM390.742 165H378.628V143.584H390.742V146.543H382.129V152.373H390.2V155.303H382.129V162.026H390.742V165ZM423.176 165H419.675V146.587H413.376V143.584H429.475V146.587H423.176V165ZM458.084 154.263C458.084 157.749 457.21 160.459 455.462 162.393C453.724 164.326 451.258 165.293 448.065 165.293C444.832 165.293 442.347 164.336 440.609 162.422C438.88 160.498 438.016 157.769 438.016 154.233C438.016 150.698 438.885 147.983 440.623 146.089C442.371 144.194 444.862 143.247 448.094 143.247C451.278 143.247 453.738 144.209 455.477 146.133C457.215 148.057 458.084 150.767 458.084 154.263ZM441.737 154.263C441.737 156.899 442.269 158.901 443.333 160.269C444.398 161.626 445.975 162.305 448.065 162.305C450.145 162.305 451.712 161.631 452.767 160.283C453.831 158.936 454.363 156.929 454.363 154.263C454.363 151.636 453.836 149.644 452.781 148.286C451.737 146.929 450.174 146.25 448.094 146.25C445.994 146.25 444.407 146.929 443.333 148.286C442.269 149.644 441.737 151.636 441.737 154.263ZM487.997 154.263C487.997 157.749 487.123 160.459 485.375 162.393C483.637 164.326 481.171 165.293 477.978 165.293C474.745 165.293 472.26 164.336 470.522 162.422C468.793 160.498 467.929 157.769 467.929 154.233C467.929 150.698 468.798 147.983 470.536 146.089C472.285 144.194 474.775 143.247 478.007 143.247C481.191 143.247 483.652 144.209 485.39 146.133C487.128 148.057 487.997 150.767 487.997 154.263ZM471.65 154.263C471.65 156.899 472.182 158.901 473.246 160.269C474.311 161.626 475.888 162.305 477.978 162.305C480.058 162.305 481.625 161.631 482.68 160.283C483.745 158.936 484.277 156.929 484.277 154.263C484.277 151.636 483.749 149.644 482.695 148.286C481.65 146.929 480.087 146.25 478.007 146.25C475.908 146.25 474.321 146.929 473.246 148.286C472.182 149.644 471.65 151.636 471.65 154.263ZM498.897 165V143.584H502.398V161.997H511.465V165H498.897ZM533.805 159.185C533.805 161.089 533.117 162.583 531.74 163.667C530.363 164.751 528.464 165.293 526.042 165.293C523.62 165.293 521.638 164.917 520.095 164.165V160.854C521.071 161.313 522.106 161.675 523.2 161.938C524.304 162.202 525.329 162.334 526.276 162.334C527.663 162.334 528.683 162.07 529.338 161.543C530.002 161.016 530.334 160.308 530.334 159.419C530.334 158.618 530.031 157.939 529.426 157.383C528.82 156.826 527.57 156.167 525.676 155.405C523.722 154.614 522.346 153.711 521.545 152.695C520.744 151.68 520.344 150.459 520.344 149.033C520.344 147.246 520.978 145.84 522.248 144.814C523.517 143.789 525.221 143.276 527.36 143.276C529.411 143.276 531.452 143.726 533.483 144.624L532.37 147.48C530.466 146.68 528.766 146.279 527.272 146.279C526.139 146.279 525.28 146.528 524.694 147.026C524.108 147.515 523.815 148.164 523.815 148.975C523.815 149.531 523.932 150.01 524.167 150.41C524.401 150.801 524.787 151.172 525.324 151.523C525.861 151.875 526.828 152.339 528.224 152.915C529.797 153.569 530.949 154.18 531.681 154.746C532.414 155.312 532.951 155.952 533.293 156.665C533.635 157.378 533.805 158.218 533.805 159.185Z" fill="#E5E5E5" />
</svg>