<svg xmlns="http://www.w3.org/2000/svg" fill-rule="evenodd" stroke-linecap="round" stroke-linejoin="round" stroke-miterlimit="1.5" clip-rule="evenodd" viewBox="0 0 84 84"><path fill="#dc597f" d="M33.702 31.524c-.538 6.939-.44 13.942-.254 21.025 2.395 3.188 4.822 4.326 8.809 4.326 3.987 0 5.98-1.007 8.375-4.195.185-7.084.534-14.217-.004-21.156.541 6.953.197 14.086.004 21.156 8.975 8.511 14.366 12.199 26.038 12.512 6.555-8.395 6.41-40.682.506-46.277-10.726-.999-19.074 5.163-26.548 12.609-2.516-2.442-4.744-3.781-8.249-3.781-3.506 0-6.161 1.339-8.677 3.781-7.475-7.446-15.334-13.521-26.06-12.522-6.352 5.37-7.439 37.425-.406 46.059 11.672-.313 17.237-4.001 26.212-12.512"/><path fill="#b82158" d="M3.069 52.672c.981 1.396 2.628 4.34 4.831 4.564 4.772.485 17.944-3.064 25.41-11.964 2.173 2.554 4.991 4.125 8.69 4.115 4.603-.013 9.164-3.504 8.828-3.616 9.642 8.152 20.358 13.391 25.404 11.533 2.111-.778 3.268-2.716 4.582-4.954-.18 4.109-1.431 8.371-4.144 12.842-9.423-.174-18.063-4.558-26.038-12.512-2.533 3.121-5.376 4.691-8.632 4.194-3.154.177-5.941-1.606-8.552-4.325-9.009 8.976-17.745 13.128-26.212 12.512-3.135-4.438-4.108-8.494-4.167-12.389z"/><path fill="none" stroke="#5f183f" stroke-width="3.85" d="M33.702 31.524c-.538 6.939-.44 13.942-.254 21.025 2.395 3.188 4.822 4.326 8.809 4.326 3.987 0 5.98-1.007 8.375-4.195.185-7.084.534-14.217-.004-21.156.541 6.953.197 14.086.004 21.156 8.975 8.511 14.366 12.199 26.038 12.512 6.555-8.395 6.41-40.682.506-46.277-10.726-.999-19.074 5.163-26.548 12.609-2.516-2.442-4.744-3.781-8.249-3.781-3.506 0-6.161 1.339-8.677 3.781-7.475-7.446-15.334-13.521-26.06-12.522-6.352 5.37-7.439 37.425-.406 46.059 11.672-.313 17.237-4.001 26.212-12.512"/></svg>